<mxfile host="app.diagrams.net" agent="Mozilla/5.0 (X11; Linux x86_64; rv:141.0) Gecko/20100101 Firefox/141.0" version="28.0.7">
  <diagram name="Page-1" id="uPd2p9e7OhqzQpt0yirn">
    <mxGraphModel dx="700" dy="370" grid="1" gridSize="10" guides="1" tooltips="1" connect="1" arrows="1" fold="1" page="1" pageScale="1" pageWidth="827" pageHeight="1169" math="0" shadow="0">
      <root>
        <mxCell id="0" />
        <mxCell id="1" parent="0" />
        <mxCell id="VpABTGJjlCjB_9lJFO_b-30" value="" style="swimlane;startSize=0;" vertex="1" parent="1">
          <mxGeometry x="180" y="160" width="200" height="330" as="geometry" />
        </mxCell>
        <mxCell id="VpABTGJjlCjB_9lJFO_b-29" value="ABCD" style="text;html=1;align=center;verticalAlign=middle;whiteSpace=wrap;rounded=0;strokeColor=none;" vertex="1" parent="VpABTGJjlCjB_9lJFO_b-30">
          <mxGeometry y="60" width="100" height="30" as="geometry" />
        </mxCell>
        <mxCell id="VpABTGJjlCjB_9lJFO_b-31" value="AB=CD" style="text;html=1;align=center;verticalAlign=middle;whiteSpace=wrap;rounded=0;strokeColor=none;" vertex="1" parent="VpABTGJjlCjB_9lJFO_b-30">
          <mxGeometry x="100" y="60" width="100" height="30" as="geometry" />
        </mxCell>
        <mxCell id="VpABTGJjlCjB_9lJFO_b-32" value="Gartley" style="text;html=1;align=center;verticalAlign=middle;whiteSpace=wrap;rounded=0;" vertex="1" parent="VpABTGJjlCjB_9lJFO_b-30">
          <mxGeometry y="90" width="100" height="30" as="geometry" />
        </mxCell>
        <mxCell id="VpABTGJjlCjB_9lJFO_b-33" value="AB=CD" style="text;html=1;align=center;verticalAlign=middle;whiteSpace=wrap;rounded=0;" vertex="1" parent="VpABTGJjlCjB_9lJFO_b-30">
          <mxGeometry x="100" y="90" width="100" height="30" as="geometry" />
        </mxCell>
        <mxCell id="VpABTGJjlCjB_9lJFO_b-34" value="Re: 88.6 of XA" style="text;html=1;align=center;verticalAlign=middle;whiteSpace=wrap;rounded=0;" vertex="1" parent="VpABTGJjlCjB_9lJFO_b-30">
          <mxGeometry x="100" y="120" width="100" height="30" as="geometry" />
        </mxCell>
        <mxCell id="VpABTGJjlCjB_9lJFO_b-35" value="Bat" style="text;html=1;align=center;verticalAlign=middle;whiteSpace=wrap;rounded=0;" vertex="1" parent="VpABTGJjlCjB_9lJFO_b-30">
          <mxGeometry y="120" width="100" height="30" as="geometry" />
        </mxCell>
        <mxCell id="VpABTGJjlCjB_9lJFO_b-36" value="Butterfly" style="text;html=1;align=center;verticalAlign=middle;whiteSpace=wrap;rounded=0;" vertex="1" parent="VpABTGJjlCjB_9lJFO_b-30">
          <mxGeometry y="150" width="100" height="30" as="geometry" />
        </mxCell>
        <mxCell id="VpABTGJjlCjB_9lJFO_b-37" value="Ex: 127 of XA" style="text;html=1;align=center;verticalAlign=middle;whiteSpace=wrap;rounded=0;" vertex="1" parent="VpABTGJjlCjB_9lJFO_b-30">
          <mxGeometry x="100" y="150" width="100" height="30" as="geometry" />
        </mxCell>
        <mxCell id="VpABTGJjlCjB_9lJFO_b-38" value="Crab" style="text;html=1;align=center;verticalAlign=middle;whiteSpace=wrap;rounded=0;" vertex="1" parent="VpABTGJjlCjB_9lJFO_b-30">
          <mxGeometry y="180" width="100" height="30" as="geometry" />
        </mxCell>
        <mxCell id="VpABTGJjlCjB_9lJFO_b-39" value="Ex: 161.8 of XA" style="text;html=1;align=center;verticalAlign=middle;whiteSpace=wrap;rounded=0;" vertex="1" parent="VpABTGJjlCjB_9lJFO_b-30">
          <mxGeometry x="100" y="180" width="100" height="30" as="geometry" />
        </mxCell>
        <mxCell id="VpABTGJjlCjB_9lJFO_b-40" value="Cypher" style="text;html=1;align=center;verticalAlign=middle;whiteSpace=wrap;rounded=0;" vertex="1" parent="VpABTGJjlCjB_9lJFO_b-30">
          <mxGeometry y="210" width="100" height="30" as="geometry" />
        </mxCell>
        <mxCell id="VpABTGJjlCjB_9lJFO_b-41" value="Re: 78.6 of XA" style="text;html=1;align=center;verticalAlign=middle;whiteSpace=wrap;rounded=0;" vertex="1" parent="VpABTGJjlCjB_9lJFO_b-30">
          <mxGeometry x="100" y="210" width="100" height="30" as="geometry" />
        </mxCell>
        <mxCell id="VpABTGJjlCjB_9lJFO_b-42" value="Shark" style="text;html=1;align=center;verticalAlign=middle;whiteSpace=wrap;rounded=0;" vertex="1" parent="VpABTGJjlCjB_9lJFO_b-30">
          <mxGeometry y="240" width="100" height="30" as="geometry" />
        </mxCell>
        <mxCell id="VpABTGJjlCjB_9lJFO_b-43" value="Ex: 113 of 0X" style="text;html=1;align=center;verticalAlign=middle;whiteSpace=wrap;rounded=0;" vertex="1" parent="VpABTGJjlCjB_9lJFO_b-30">
          <mxGeometry x="100" y="240" width="100" height="30" as="geometry" />
        </mxCell>
        <mxCell id="VpABTGJjlCjB_9lJFO_b-44" value="5-0" style="text;html=1;align=center;verticalAlign=middle;whiteSpace=wrap;rounded=0;" vertex="1" parent="VpABTGJjlCjB_9lJFO_b-30">
          <mxGeometry y="270" width="100" height="30" as="geometry" />
        </mxCell>
        <mxCell id="VpABTGJjlCjB_9lJFO_b-45" value="Re: 50 of BC" style="text;html=1;align=center;verticalAlign=middle;whiteSpace=wrap;rounded=0;" vertex="1" parent="VpABTGJjlCjB_9lJFO_b-30">
          <mxGeometry x="100" y="270" width="100" height="30" as="geometry" />
        </mxCell>
        <mxCell id="VpABTGJjlCjB_9lJFO_b-46" value="Quasimodo" style="text;html=1;align=center;verticalAlign=middle;whiteSpace=wrap;rounded=0;" vertex="1" parent="VpABTGJjlCjB_9lJFO_b-30">
          <mxGeometry y="300" width="100" height="30" as="geometry" />
        </mxCell>
        <mxCell id="VpABTGJjlCjB_9lJFO_b-48" value="Pattern" style="text;html=1;align=center;verticalAlign=middle;whiteSpace=wrap;rounded=0;fillColor=#f5f5f5;strokeColor=#666666;fontColor=#333333;" vertex="1" parent="VpABTGJjlCjB_9lJFO_b-30">
          <mxGeometry y="30" width="100" height="30" as="geometry" />
        </mxCell>
        <mxCell id="VpABTGJjlCjB_9lJFO_b-49" value="Zone" style="text;html=1;align=center;verticalAlign=middle;whiteSpace=wrap;rounded=0;fillColor=#f5f5f5;strokeColor=#666666;fontColor=#333333;" vertex="1" parent="VpABTGJjlCjB_9lJFO_b-30">
          <mxGeometry x="100" y="30" width="100" height="30" as="geometry" />
        </mxCell>
        <mxCell id="VpABTGJjlCjB_9lJFO_b-50" value="" style="endArrow=none;html=1;rounded=0;exitX=0;exitY=0;exitDx=0;exitDy=0;entryX=1;entryY=0;entryDx=0;entryDy=0;" edge="1" parent="VpABTGJjlCjB_9lJFO_b-30" source="VpABTGJjlCjB_9lJFO_b-32" target="VpABTGJjlCjB_9lJFO_b-33">
          <mxGeometry width="50" height="50" relative="1" as="geometry">
            <mxPoint x="210" y="180" as="sourcePoint" />
            <mxPoint x="260" y="130" as="targetPoint" />
          </mxGeometry>
        </mxCell>
        <mxCell id="VpABTGJjlCjB_9lJFO_b-51" value="" style="endArrow=none;html=1;rounded=0;exitX=0;exitY=0;exitDx=0;exitDy=0;entryX=1;entryY=0;entryDx=0;entryDy=0;" edge="1" parent="VpABTGJjlCjB_9lJFO_b-30" source="VpABTGJjlCjB_9lJFO_b-35" target="VpABTGJjlCjB_9lJFO_b-34">
          <mxGeometry width="50" height="50" relative="1" as="geometry">
            <mxPoint x="210" y="180" as="sourcePoint" />
            <mxPoint x="260" y="130" as="targetPoint" />
          </mxGeometry>
        </mxCell>
        <mxCell id="VpABTGJjlCjB_9lJFO_b-52" value="" style="endArrow=none;html=1;rounded=0;exitX=0;exitY=0;exitDx=0;exitDy=0;entryX=1;entryY=0;entryDx=0;entryDy=0;" edge="1" parent="VpABTGJjlCjB_9lJFO_b-30" source="VpABTGJjlCjB_9lJFO_b-36" target="VpABTGJjlCjB_9lJFO_b-37">
          <mxGeometry width="50" height="50" relative="1" as="geometry">
            <mxPoint x="210" y="180" as="sourcePoint" />
            <mxPoint x="260" y="130" as="targetPoint" />
          </mxGeometry>
        </mxCell>
        <mxCell id="VpABTGJjlCjB_9lJFO_b-53" value="" style="endArrow=none;html=1;rounded=0;exitX=0;exitY=0;exitDx=0;exitDy=0;entryX=1;entryY=0;entryDx=0;entryDy=0;" edge="1" parent="VpABTGJjlCjB_9lJFO_b-30" source="VpABTGJjlCjB_9lJFO_b-38" target="VpABTGJjlCjB_9lJFO_b-39">
          <mxGeometry width="50" height="50" relative="1" as="geometry">
            <mxPoint x="210" y="190" as="sourcePoint" />
            <mxPoint x="260" y="140" as="targetPoint" />
          </mxGeometry>
        </mxCell>
        <mxCell id="VpABTGJjlCjB_9lJFO_b-54" value="" style="endArrow=none;html=1;rounded=0;exitX=0;exitY=0;exitDx=0;exitDy=0;entryX=1;entryY=0;entryDx=0;entryDy=0;" edge="1" parent="VpABTGJjlCjB_9lJFO_b-30" source="VpABTGJjlCjB_9lJFO_b-40" target="VpABTGJjlCjB_9lJFO_b-41">
          <mxGeometry width="50" height="50" relative="1" as="geometry">
            <mxPoint x="210" y="230" as="sourcePoint" />
            <mxPoint x="260" y="180" as="targetPoint" />
          </mxGeometry>
        </mxCell>
        <mxCell id="VpABTGJjlCjB_9lJFO_b-55" value="" style="endArrow=none;html=1;rounded=0;exitX=0;exitY=1;exitDx=0;exitDy=0;entryX=1;entryY=0;entryDx=0;entryDy=0;" edge="1" parent="VpABTGJjlCjB_9lJFO_b-30" source="VpABTGJjlCjB_9lJFO_b-40" target="VpABTGJjlCjB_9lJFO_b-43">
          <mxGeometry width="50" height="50" relative="1" as="geometry">
            <mxPoint x="210" y="260" as="sourcePoint" />
            <mxPoint x="260" y="210" as="targetPoint" />
          </mxGeometry>
        </mxCell>
        <mxCell id="VpABTGJjlCjB_9lJFO_b-56" value="" style="endArrow=none;html=1;rounded=0;exitX=0;exitY=0;exitDx=0;exitDy=0;entryX=1;entryY=1;entryDx=0;entryDy=0;" edge="1" parent="VpABTGJjlCjB_9lJFO_b-30" source="VpABTGJjlCjB_9lJFO_b-44" target="VpABTGJjlCjB_9lJFO_b-43">
          <mxGeometry width="50" height="50" relative="1" as="geometry">
            <mxPoint x="210" y="260" as="sourcePoint" />
            <mxPoint x="260" y="210" as="targetPoint" />
          </mxGeometry>
        </mxCell>
        <mxCell id="VpABTGJjlCjB_9lJFO_b-57" value="" style="endArrow=none;html=1;rounded=0;exitX=0;exitY=1;exitDx=0;exitDy=0;entryX=1;entryY=1;entryDx=0;entryDy=0;" edge="1" parent="VpABTGJjlCjB_9lJFO_b-30" source="VpABTGJjlCjB_9lJFO_b-44" target="VpABTGJjlCjB_9lJFO_b-45">
          <mxGeometry width="50" height="50" relative="1" as="geometry">
            <mxPoint x="210" y="260" as="sourcePoint" />
            <mxPoint x="260" y="210" as="targetPoint" />
          </mxGeometry>
        </mxCell>
        <mxCell id="VpABTGJjlCjB_9lJFO_b-47" value="Re: 61.8 &amp;amp; 78.6" style="text;html=1;align=center;verticalAlign=middle;whiteSpace=wrap;rounded=0;" vertex="1" parent="VpABTGJjlCjB_9lJFO_b-30">
          <mxGeometry x="100" y="300" width="100" height="30" as="geometry" />
        </mxCell>
        <mxCell id="VpABTGJjlCjB_9lJFO_b-59" value="Pending Order" style="text;html=1;align=center;verticalAlign=middle;whiteSpace=wrap;rounded=0;" vertex="1" parent="VpABTGJjlCjB_9lJFO_b-30">
          <mxGeometry width="200" height="30" as="geometry" />
        </mxCell>
        <mxCell id="VpABTGJjlCjB_9lJFO_b-60" value="" style="swimlane;startSize=0;" vertex="1" parent="1">
          <mxGeometry x="440" y="160" width="200" height="510" as="geometry" />
        </mxCell>
        <mxCell id="VpABTGJjlCjB_9lJFO_b-61" value="0.0" style="text;html=1;align=center;verticalAlign=middle;whiteSpace=wrap;rounded=0;strokeColor=none;" vertex="1" parent="VpABTGJjlCjB_9lJFO_b-60">
          <mxGeometry y="60" width="100" height="30" as="geometry" />
        </mxCell>
        <mxCell id="VpABTGJjlCjB_9lJFO_b-62" value="0" style="text;html=1;align=center;verticalAlign=middle;whiteSpace=wrap;rounded=0;strokeColor=none;" vertex="1" parent="VpABTGJjlCjB_9lJFO_b-60">
          <mxGeometry x="100" y="60" width="100" height="30" as="geometry" />
        </mxCell>
        <mxCell id="VpABTGJjlCjB_9lJFO_b-63" value="0.382" style="text;html=1;align=center;verticalAlign=middle;whiteSpace=wrap;rounded=0;" vertex="1" parent="VpABTGJjlCjB_9lJFO_b-60">
          <mxGeometry y="90" width="100" height="30" as="geometry" />
        </mxCell>
        <mxCell id="VpABTGJjlCjB_9lJFO_b-64" value="38.2" style="text;html=1;align=center;verticalAlign=middle;whiteSpace=wrap;rounded=0;" vertex="1" parent="VpABTGJjlCjB_9lJFO_b-60">
          <mxGeometry x="100" y="90" width="100" height="30" as="geometry" />
        </mxCell>
        <mxCell id="VpABTGJjlCjB_9lJFO_b-65" value="50" style="text;html=1;align=center;verticalAlign=middle;whiteSpace=wrap;rounded=0;" vertex="1" parent="VpABTGJjlCjB_9lJFO_b-60">
          <mxGeometry x="100" y="120" width="100" height="30" as="geometry" />
        </mxCell>
        <mxCell id="VpABTGJjlCjB_9lJFO_b-66" value="0.50" style="text;html=1;align=center;verticalAlign=middle;whiteSpace=wrap;rounded=0;" vertex="1" parent="VpABTGJjlCjB_9lJFO_b-60">
          <mxGeometry y="120" width="100" height="30" as="geometry" />
        </mxCell>
        <mxCell id="VpABTGJjlCjB_9lJFO_b-67" value="0.618" style="text;html=1;align=center;verticalAlign=middle;whiteSpace=wrap;rounded=0;" vertex="1" parent="VpABTGJjlCjB_9lJFO_b-60">
          <mxGeometry y="150" width="100" height="30" as="geometry" />
        </mxCell>
        <mxCell id="VpABTGJjlCjB_9lJFO_b-68" value="61.8" style="text;html=1;align=center;verticalAlign=middle;whiteSpace=wrap;rounded=0;" vertex="1" parent="VpABTGJjlCjB_9lJFO_b-60">
          <mxGeometry x="100" y="150" width="100" height="30" as="geometry" />
        </mxCell>
        <mxCell id="VpABTGJjlCjB_9lJFO_b-69" value="0.786" style="text;html=1;align=center;verticalAlign=middle;whiteSpace=wrap;rounded=0;" vertex="1" parent="VpABTGJjlCjB_9lJFO_b-60">
          <mxGeometry y="180" width="100" height="30" as="geometry" />
        </mxCell>
        <mxCell id="VpABTGJjlCjB_9lJFO_b-70" value="78.6" style="text;html=1;align=center;verticalAlign=middle;whiteSpace=wrap;rounded=0;" vertex="1" parent="VpABTGJjlCjB_9lJFO_b-60">
          <mxGeometry x="100" y="180" width="100" height="30" as="geometry" />
        </mxCell>
        <mxCell id="VpABTGJjlCjB_9lJFO_b-71" value="0.887" style="text;html=1;align=center;verticalAlign=middle;whiteSpace=wrap;rounded=0;" vertex="1" parent="VpABTGJjlCjB_9lJFO_b-60">
          <mxGeometry y="210" width="100" height="30" as="geometry" />
        </mxCell>
        <mxCell id="VpABTGJjlCjB_9lJFO_b-72" value="88.7" style="text;html=1;align=center;verticalAlign=middle;whiteSpace=wrap;rounded=0;" vertex="1" parent="VpABTGJjlCjB_9lJFO_b-60">
          <mxGeometry x="100" y="210" width="100" height="30" as="geometry" />
        </mxCell>
        <mxCell id="VpABTGJjlCjB_9lJFO_b-73" value="1.0" style="text;html=1;align=center;verticalAlign=middle;whiteSpace=wrap;rounded=0;" vertex="1" parent="VpABTGJjlCjB_9lJFO_b-60">
          <mxGeometry y="240" width="100" height="30" as="geometry" />
        </mxCell>
        <mxCell id="VpABTGJjlCjB_9lJFO_b-74" value="100" style="text;html=1;align=center;verticalAlign=middle;whiteSpace=wrap;rounded=0;" vertex="1" parent="VpABTGJjlCjB_9lJFO_b-60">
          <mxGeometry x="100" y="240" width="100" height="30" as="geometry" />
        </mxCell>
        <mxCell id="VpABTGJjlCjB_9lJFO_b-75" value="1.13" style="text;html=1;align=center;verticalAlign=middle;whiteSpace=wrap;rounded=0;" vertex="1" parent="VpABTGJjlCjB_9lJFO_b-60">
          <mxGeometry y="270" width="100" height="30" as="geometry" />
        </mxCell>
        <mxCell id="VpABTGJjlCjB_9lJFO_b-76" value="113" style="text;html=1;align=center;verticalAlign=middle;whiteSpace=wrap;rounded=0;" vertex="1" parent="VpABTGJjlCjB_9lJFO_b-60">
          <mxGeometry x="100" y="270" width="100" height="30" as="geometry" />
        </mxCell>
        <mxCell id="VpABTGJjlCjB_9lJFO_b-77" value="1.27" style="text;html=1;align=center;verticalAlign=middle;whiteSpace=wrap;rounded=0;" vertex="1" parent="VpABTGJjlCjB_9lJFO_b-60">
          <mxGeometry y="300" width="100" height="30" as="geometry" />
        </mxCell>
        <mxCell id="VpABTGJjlCjB_9lJFO_b-78" value="Pattern" style="text;html=1;align=center;verticalAlign=middle;whiteSpace=wrap;rounded=0;fillColor=#f5f5f5;strokeColor=#666666;fontColor=#333333;" vertex="1" parent="VpABTGJjlCjB_9lJFO_b-60">
          <mxGeometry y="30" width="100" height="30" as="geometry" />
        </mxCell>
        <mxCell id="VpABTGJjlCjB_9lJFO_b-79" value="Zone" style="text;html=1;align=center;verticalAlign=middle;whiteSpace=wrap;rounded=0;fillColor=#f5f5f5;strokeColor=#666666;fontColor=#333333;" vertex="1" parent="VpABTGJjlCjB_9lJFO_b-60">
          <mxGeometry x="100" y="30" width="100" height="30" as="geometry" />
        </mxCell>
        <mxCell id="VpABTGJjlCjB_9lJFO_b-80" value="" style="endArrow=none;html=1;rounded=0;exitX=0;exitY=0;exitDx=0;exitDy=0;entryX=1;entryY=0;entryDx=0;entryDy=0;" edge="1" parent="VpABTGJjlCjB_9lJFO_b-60" source="VpABTGJjlCjB_9lJFO_b-63" target="VpABTGJjlCjB_9lJFO_b-64">
          <mxGeometry width="50" height="50" relative="1" as="geometry">
            <mxPoint x="210" y="180" as="sourcePoint" />
            <mxPoint x="260" y="130" as="targetPoint" />
          </mxGeometry>
        </mxCell>
        <mxCell id="VpABTGJjlCjB_9lJFO_b-81" value="" style="endArrow=none;html=1;rounded=0;exitX=0;exitY=0;exitDx=0;exitDy=0;entryX=1;entryY=0;entryDx=0;entryDy=0;" edge="1" parent="VpABTGJjlCjB_9lJFO_b-60" source="VpABTGJjlCjB_9lJFO_b-66" target="VpABTGJjlCjB_9lJFO_b-65">
          <mxGeometry width="50" height="50" relative="1" as="geometry">
            <mxPoint x="210" y="180" as="sourcePoint" />
            <mxPoint x="260" y="130" as="targetPoint" />
          </mxGeometry>
        </mxCell>
        <mxCell id="VpABTGJjlCjB_9lJFO_b-82" value="" style="endArrow=none;html=1;rounded=0;exitX=0;exitY=0;exitDx=0;exitDy=0;entryX=1;entryY=0;entryDx=0;entryDy=0;" edge="1" parent="VpABTGJjlCjB_9lJFO_b-60" source="VpABTGJjlCjB_9lJFO_b-67" target="VpABTGJjlCjB_9lJFO_b-68">
          <mxGeometry width="50" height="50" relative="1" as="geometry">
            <mxPoint x="210" y="180" as="sourcePoint" />
            <mxPoint x="260" y="130" as="targetPoint" />
          </mxGeometry>
        </mxCell>
        <mxCell id="VpABTGJjlCjB_9lJFO_b-83" value="" style="endArrow=none;html=1;rounded=0;exitX=0;exitY=0;exitDx=0;exitDy=0;entryX=1;entryY=0;entryDx=0;entryDy=0;" edge="1" parent="VpABTGJjlCjB_9lJFO_b-60" source="VpABTGJjlCjB_9lJFO_b-69" target="VpABTGJjlCjB_9lJFO_b-70">
          <mxGeometry width="50" height="50" relative="1" as="geometry">
            <mxPoint x="210" y="190" as="sourcePoint" />
            <mxPoint x="260" y="140" as="targetPoint" />
          </mxGeometry>
        </mxCell>
        <mxCell id="VpABTGJjlCjB_9lJFO_b-84" value="" style="endArrow=none;html=1;rounded=0;exitX=0;exitY=0;exitDx=0;exitDy=0;entryX=1;entryY=0;entryDx=0;entryDy=0;" edge="1" parent="VpABTGJjlCjB_9lJFO_b-60" source="VpABTGJjlCjB_9lJFO_b-71" target="VpABTGJjlCjB_9lJFO_b-72">
          <mxGeometry width="50" height="50" relative="1" as="geometry">
            <mxPoint x="210" y="230" as="sourcePoint" />
            <mxPoint x="260" y="180" as="targetPoint" />
          </mxGeometry>
        </mxCell>
        <mxCell id="VpABTGJjlCjB_9lJFO_b-85" value="" style="endArrow=none;html=1;rounded=0;exitX=0;exitY=1;exitDx=0;exitDy=0;entryX=1;entryY=0;entryDx=0;entryDy=0;" edge="1" parent="VpABTGJjlCjB_9lJFO_b-60" source="VpABTGJjlCjB_9lJFO_b-71" target="VpABTGJjlCjB_9lJFO_b-74">
          <mxGeometry width="50" height="50" relative="1" as="geometry">
            <mxPoint x="210" y="260" as="sourcePoint" />
            <mxPoint x="260" y="210" as="targetPoint" />
          </mxGeometry>
        </mxCell>
        <mxCell id="VpABTGJjlCjB_9lJFO_b-86" value="" style="endArrow=none;html=1;rounded=0;exitX=0;exitY=0;exitDx=0;exitDy=0;entryX=1;entryY=1;entryDx=0;entryDy=0;" edge="1" parent="VpABTGJjlCjB_9lJFO_b-60" source="VpABTGJjlCjB_9lJFO_b-75" target="VpABTGJjlCjB_9lJFO_b-74">
          <mxGeometry width="50" height="50" relative="1" as="geometry">
            <mxPoint x="210" y="260" as="sourcePoint" />
            <mxPoint x="260" y="210" as="targetPoint" />
          </mxGeometry>
        </mxCell>
        <mxCell id="VpABTGJjlCjB_9lJFO_b-87" value="" style="endArrow=none;html=1;rounded=0;exitX=0;exitY=1;exitDx=0;exitDy=0;entryX=1;entryY=1;entryDx=0;entryDy=0;" edge="1" parent="VpABTGJjlCjB_9lJFO_b-60" source="VpABTGJjlCjB_9lJFO_b-75" target="VpABTGJjlCjB_9lJFO_b-76">
          <mxGeometry width="50" height="50" relative="1" as="geometry">
            <mxPoint x="210" y="260" as="sourcePoint" />
            <mxPoint x="260" y="210" as="targetPoint" />
          </mxGeometry>
        </mxCell>
        <mxCell id="VpABTGJjlCjB_9lJFO_b-89" value="Pending Order" style="text;html=1;align=center;verticalAlign=middle;whiteSpace=wrap;rounded=0;" vertex="1" parent="VpABTGJjlCjB_9lJFO_b-60">
          <mxGeometry width="200" height="30" as="geometry" />
        </mxCell>
        <mxCell id="VpABTGJjlCjB_9lJFO_b-88" value="127" style="text;html=1;align=center;verticalAlign=middle;whiteSpace=wrap;rounded=0;" vertex="1" parent="VpABTGJjlCjB_9lJFO_b-60">
          <mxGeometry x="100" y="300" width="100" height="30" as="geometry" />
        </mxCell>
        <mxCell id="VpABTGJjlCjB_9lJFO_b-90" value="1.414" style="text;html=1;align=center;verticalAlign=middle;whiteSpace=wrap;rounded=0;" vertex="1" parent="VpABTGJjlCjB_9lJFO_b-60">
          <mxGeometry y="330" width="100" height="30" as="geometry" />
        </mxCell>
        <mxCell id="VpABTGJjlCjB_9lJFO_b-91" value="" style="endArrow=none;html=1;rounded=0;exitX=0;exitY=1;exitDx=0;exitDy=0;entryX=1;entryY=1;entryDx=0;entryDy=0;" edge="1" parent="VpABTGJjlCjB_9lJFO_b-60">
          <mxGeometry width="50" height="50" relative="1" as="geometry">
            <mxPoint y="330" as="sourcePoint" />
            <mxPoint x="200" y="330" as="targetPoint" />
          </mxGeometry>
        </mxCell>
        <mxCell id="VpABTGJjlCjB_9lJFO_b-92" value="141.4" style="text;html=1;align=center;verticalAlign=middle;whiteSpace=wrap;rounded=0;" vertex="1" parent="VpABTGJjlCjB_9lJFO_b-60">
          <mxGeometry x="100" y="330" width="100" height="30" as="geometry" />
        </mxCell>
        <mxCell id="VpABTGJjlCjB_9lJFO_b-93" value="1.618" style="text;html=1;align=center;verticalAlign=middle;whiteSpace=wrap;rounded=0;" vertex="1" parent="VpABTGJjlCjB_9lJFO_b-60">
          <mxGeometry y="360" width="100" height="30" as="geometry" />
        </mxCell>
        <mxCell id="VpABTGJjlCjB_9lJFO_b-94" value="" style="endArrow=none;html=1;rounded=0;exitX=0;exitY=1;exitDx=0;exitDy=0;entryX=1;entryY=1;entryDx=0;entryDy=0;" edge="1" parent="VpABTGJjlCjB_9lJFO_b-60">
          <mxGeometry width="50" height="50" relative="1" as="geometry">
            <mxPoint y="360" as="sourcePoint" />
            <mxPoint x="200" y="360" as="targetPoint" />
          </mxGeometry>
        </mxCell>
        <mxCell id="VpABTGJjlCjB_9lJFO_b-95" value="161.8" style="text;html=1;align=center;verticalAlign=middle;whiteSpace=wrap;rounded=0;" vertex="1" parent="VpABTGJjlCjB_9lJFO_b-60">
          <mxGeometry x="100" y="360" width="100" height="30" as="geometry" />
        </mxCell>
        <mxCell id="VpABTGJjlCjB_9lJFO_b-96" value="2.0" style="text;html=1;align=center;verticalAlign=middle;whiteSpace=wrap;rounded=0;" vertex="1" parent="VpABTGJjlCjB_9lJFO_b-60">
          <mxGeometry y="390" width="100" height="30" as="geometry" />
        </mxCell>
        <mxCell id="VpABTGJjlCjB_9lJFO_b-97" value="" style="endArrow=none;html=1;rounded=0;exitX=0;exitY=1;exitDx=0;exitDy=0;entryX=1;entryY=1;entryDx=0;entryDy=0;" edge="1" parent="VpABTGJjlCjB_9lJFO_b-60">
          <mxGeometry width="50" height="50" relative="1" as="geometry">
            <mxPoint y="390" as="sourcePoint" />
            <mxPoint x="200" y="390" as="targetPoint" />
          </mxGeometry>
        </mxCell>
        <mxCell id="VpABTGJjlCjB_9lJFO_b-98" value="200" style="text;html=1;align=center;verticalAlign=middle;whiteSpace=wrap;rounded=0;" vertex="1" parent="VpABTGJjlCjB_9lJFO_b-60">
          <mxGeometry x="100" y="390" width="100" height="30" as="geometry" />
        </mxCell>
        <mxCell id="VpABTGJjlCjB_9lJFO_b-99" value="2.236" style="text;html=1;align=center;verticalAlign=middle;whiteSpace=wrap;rounded=0;" vertex="1" parent="VpABTGJjlCjB_9lJFO_b-60">
          <mxGeometry y="420" width="100" height="30" as="geometry" />
        </mxCell>
        <mxCell id="VpABTGJjlCjB_9lJFO_b-100" value="" style="endArrow=none;html=1;rounded=0;exitX=0;exitY=1;exitDx=0;exitDy=0;entryX=1;entryY=1;entryDx=0;entryDy=0;" edge="1" parent="VpABTGJjlCjB_9lJFO_b-60">
          <mxGeometry width="50" height="50" relative="1" as="geometry">
            <mxPoint y="420" as="sourcePoint" />
            <mxPoint x="200" y="420" as="targetPoint" />
          </mxGeometry>
        </mxCell>
        <mxCell id="VpABTGJjlCjB_9lJFO_b-101" value="223.6" style="text;html=1;align=center;verticalAlign=middle;whiteSpace=wrap;rounded=0;" vertex="1" parent="VpABTGJjlCjB_9lJFO_b-60">
          <mxGeometry x="100" y="420" width="100" height="30" as="geometry" />
        </mxCell>
        <mxCell id="VpABTGJjlCjB_9lJFO_b-102" value="2.618" style="text;html=1;align=center;verticalAlign=middle;whiteSpace=wrap;rounded=0;" vertex="1" parent="VpABTGJjlCjB_9lJFO_b-60">
          <mxGeometry y="450" width="100" height="30" as="geometry" />
        </mxCell>
        <mxCell id="VpABTGJjlCjB_9lJFO_b-103" value="" style="endArrow=none;html=1;rounded=0;exitX=0;exitY=1;exitDx=0;exitDy=0;entryX=1;entryY=1;entryDx=0;entryDy=0;" edge="1" parent="VpABTGJjlCjB_9lJFO_b-60">
          <mxGeometry width="50" height="50" relative="1" as="geometry">
            <mxPoint y="450" as="sourcePoint" />
            <mxPoint x="200" y="450" as="targetPoint" />
          </mxGeometry>
        </mxCell>
        <mxCell id="VpABTGJjlCjB_9lJFO_b-104" value="261.8" style="text;html=1;align=center;verticalAlign=middle;whiteSpace=wrap;rounded=0;" vertex="1" parent="VpABTGJjlCjB_9lJFO_b-60">
          <mxGeometry x="100" y="450" width="100" height="30" as="geometry" />
        </mxCell>
        <mxCell id="VpABTGJjlCjB_9lJFO_b-105" value="3.618" style="text;html=1;align=center;verticalAlign=middle;whiteSpace=wrap;rounded=0;" vertex="1" parent="VpABTGJjlCjB_9lJFO_b-60">
          <mxGeometry y="480" width="100" height="30" as="geometry" />
        </mxCell>
        <mxCell id="VpABTGJjlCjB_9lJFO_b-106" value="" style="endArrow=none;html=1;rounded=0;exitX=0;exitY=1;exitDx=0;exitDy=0;entryX=1;entryY=1;entryDx=0;entryDy=0;" edge="1" parent="VpABTGJjlCjB_9lJFO_b-60">
          <mxGeometry width="50" height="50" relative="1" as="geometry">
            <mxPoint y="480" as="sourcePoint" />
            <mxPoint x="200" y="480" as="targetPoint" />
          </mxGeometry>
        </mxCell>
        <mxCell id="VpABTGJjlCjB_9lJFO_b-107" value="361.8" style="text;html=1;align=center;verticalAlign=middle;whiteSpace=wrap;rounded=0;" vertex="1" parent="VpABTGJjlCjB_9lJFO_b-60">
          <mxGeometry x="100" y="480" width="100" height="30" as="geometry" />
        </mxCell>
      </root>
    </mxGraphModel>
  </diagram>
</mxfile>
